<svg width="800" height="800" viewBox="-3.2 -3.2 38.4 38.4" xmlns="http://www.w3.org/2000/svg">
  <rect x="-3.2" y="-3.2" width="38.4" height="38.4" rx="3.84" fill="#fff"/>
  <path d="M8 27a.76.76 0 0 1-.75.75 1.51 1.51 0 0 0-1.5 1.5.75.75 0 0 1-1.5 0 1.5 1.5 0 0 0-1.5-1.5.75.75 0 0 1 0-1.5 1.5 1.5 0 0 0 1.5-1.5.75.75 0 0 1 1.5 0 1.51 1.51 0 0 0 1.5 1.5A.76.76 0 0 1 8 27ZM30 6a1 1 0 0 1-1 1 2 2 0 0 0-2 2 1 1 0 0 1-2 0 2 2 0 0 0-2-2 1 1 0 0 1 0-2 2 2 0 0 0 2-2 1 1 0 0 1 2 0 2 2 0 0 0 2 2 1 1 0 0 1 1 1Zm-2.7 8.75a14 14 0 0 0-22.6 0 2.94 2.94 0 0 0 0 3.5 14 14 0 0 0 22.6 0 2.93 2.93 0 0 0 0-3.5Zm-21 2.33a1 1 0 0 1 0-1.16 12 12 0 0 1 6.46-4.47 6 6 0 0 0 0 10.1 12 12 0 0 1-6.44-4.47Zm19.37 0a12 12 0 0 1-6.45 4.47 6 6 0 0 0 0-10.1 12 12 0 0 1 6.45 4.47 1 1 0 0 1 .02 1.16Z" data-name="Layer 2"/>
</svg>
